<?xml version="1.0" encoding="UTF-8" standalone="no"?>
<svg
   height="512"
   viewBox="42.544 -0.671 95.838208 113.40186"
   width="512"
   version="1.1"
   id="svg1"
   xmlns="http://www.w3.org/2000/svg"
   xmlns:svg="http://www.w3.org/2000/svg">
  <defs
     id="defs1" />
  <path
     d="m 49.562812,36.732781 c -1.953907,0 -3.611725,0.681376 -4.974478,2.044129 C 43.225581,40.139663 42.544,41.774925 42.544,43.683517 v 29.30431 c 0,1.956368 0.681376,3.61275 2.044334,4.975708 1.362753,1.362753 3.020571,2.044334 4.974478,2.044334 1.952473,0 3.600243,-0.681376 4.941876,-2.044334 1.338967,-1.362752 2.010296,-3.01934 2.010296,-4.975708 v -29.30431 c 0,-1.908797 -0.681377,-3.543854 -2.044334,-4.906607 -1.362958,-1.362753 -2.999246,-2.044129 -4.907838,-2.044129 z m 56.428958,-26.3065 4.83873,-8.9261743 c 0.31762,-0.59094991 0.20464,-1.04410723 -0.33997,-1.36275269 -0.59115,-0.27476507 -1.04534,-0.1355371 -1.36275,0.40784159 l -4.9064,8.9975308 C 99.904079,7.6339294 95.337853,6.677788 90.522698,6.677788 c -4.816181,0 -9.382817,0.9563464 -13.698475,2.8649384 L 71.917616,0.5451956 c -0.31885,-0.54337869 -0.773033,-0.68137637 -1.362752,-0.40784159 -0.54584,0.3200808 -0.658821,0.77180278 -0.339971,1.36275269 l 4.838941,8.9261743 c -4.906607,2.502207 -8.814422,5.987008 -11.722011,10.461987 -2.907588,4.477441 -4.361998,9.37031 -4.361998,14.687219 h 63.037255 c 0,-5.315679 -1.45461,-10.208753 -4.36199,-14.687219 -2.9078,-4.474979 -6.79306,-7.95978 -11.65332,-10.461987 z M 78.016376,23.409545 c -0.523284,0.524515 -1.148272,0.785542 -1.874759,0.785542 -0.727923,0 -1.340198,-0.261027 -1.839696,-0.785542 -0.499498,-0.522053 -0.749247,-1.144581 -0.749247,-1.873528 0,-0.726487 0.249749,-1.350245 0.749247,-1.873529 0.499498,-0.522054 1.113209,-0.78308 1.839696,-0.78308 0.726487,0 1.351475,0.261026 1.874759,0.78308 0.522053,0.524514 0.784311,1.147042 0.784311,1.873529 -0.0014,0.727717 -0.263488,1.351475 -0.784311,1.873528 z m 28.724434,0 c -0.50053,0.524515 -1.11424,0.785542 -1.83949,0.785542 -0.72813,0 -1.35291,-0.261027 -1.87517,-0.785542 -0.52308,-0.522053 -0.78411,-1.144581 -0.78411,-1.873528 0,-0.726487 0.26103,-1.350245 0.78411,-1.873529 0.52226,-0.522054 1.14704,-0.78308 1.87517,-0.78308 0.72648,0 1.33876,0.261026 1.83949,0.78308 0.49991,0.524514 0.74925,1.147042 0.74925,1.873529 0,0.727717 -0.24955,1.351475 -0.74925,1.873528 z M 59.240489,83.414751 c 0,2.091906 0.726487,3.862705 2.179666,5.315884 1.45441,1.453179 3.225209,2.179666 5.315679,2.179666 h 5.043375 l 0.0691,15.471739 c 0,1.9537 0.681376,3.61275 2.044129,4.9757 1.362753,1.36296 2.999245,2.04434 4.906607,2.04434 1.952678,0 3.61152,-0.68138 4.974478,-2.04434 1.362958,-1.36295 2.044334,-3.0218 2.044334,-4.9757 V 90.911737 h 9.404348 v 15.470303 c 0,1.9537 0.681171,3.61275 2.044129,4.9757 1.362957,1.36296 3.020366,2.04434 4.974476,2.04434 1.95268,0 3.61152,-0.68138 4.97448,-2.04434 1.36296,-1.36295 2.04413,-3.0218 2.04413,-4.9757 V 90.911737 h 5.11145 c 2.04413,0 3.79217,-0.726692 5.24801,-2.179871 1.45298,-1.45318 2.17987,-3.223979 2.17987,-5.315679 V 38.026432 H 59.240489 Z m 72.239431,-46.68197 c -1.9088,0 -3.54386,0.671329 -4.90681,2.010296 -1.36276,1.341428 -2.04413,2.989198 -2.04413,4.94044 v 29.30431 c 0,1.956368 0.68117,3.61275 2.04413,4.975708 1.36295,1.362958 2.99924,2.044334 4.90681,2.044334 1.95267,0 3.61152,-0.681376 4.97448,-2.044334 1.36295,-1.362958 2.04412,-3.01934 2.04412,-4.975708 v -29.30431 c 0,-1.951447 -0.68117,-3.599012 -2.04412,-4.94044 -1.36296,-1.338967 -3.02181,-2.010296 -4.97448,-2.010296 z"
     id="path1"
     style="mix-blend-mode:normal;fill:#ffffff;fill-opacity:1;stroke-width:0.205049" />
</svg>
