<?xml version="1.0" encoding="UTF-8" standalone="no"?>
<!-- Created with Inkscape (http://www.inkscape.org/) -->

<svg
   width="512"
   height="512"
   viewBox="0 0 512 512"
   version="1.1"
   id="svg1"
   xml:space="preserve"
   inkscape:version="1.4.2 (ebf0e940d0, 2025-05-08)"
   sodipodi:docname="fedora.svg"
   xmlns:inkscape="http://www.inkscape.org/namespaces/inkscape"
   xmlns:sodipodi="http://sodipodi.sourceforge.net/DTD/sodipodi-0.dtd"
   xmlns="http://www.w3.org/2000/svg"
   xmlns:svg="http://www.w3.org/2000/svg"><sodipodi:namedview
     id="namedview1"
     pagecolor="#505050"
     bordercolor="#eeeeee"
     borderopacity="1"
     inkscape:showpageshadow="0"
     inkscape:pageopacity="0"
     inkscape:pagecheckerboard="0"
     inkscape:deskcolor="#505050"
     inkscape:document-units="px"
     inkscape:zoom="1.5329854"
     inkscape:cx="271.69208"
     inkscape:cy="287.67397"
     inkscape:window-width="2560"
     inkscape:window-height="1368"
     inkscape:window-x="0"
     inkscape:window-y="0"
     inkscape:window-maximized="1"
     inkscape:current-layer="g1" /><defs
     id="defs1" /><g
     inkscape:label="Layer 1"
     inkscape:groupmode="layer"
     id="layer1"><g
       id="g1"
       transform="matrix(3.7795275,0,0,3.7795275,201.89729,181.3672)" /><g
       id="g2"
       transform="matrix(3.7795275,0,0,3.7795275,201.89729,181.3672)"><path
         fill="#ffffff"
         d="m 45.66206,-47.986739 c -17.393103,0 -32.757417,12.190103 -34.884443,28.182177 -0.142981,1.338696 -0.184842,2.301402 -0.192881,3.51503 l 0.02067,65.38573 c 0,12.54246 -10.0845345,21.07891 -22.685567,21.07891 -12.618431,0 -22.783489,-9.386258 -22.783489,-21.098624 0.20695,-12.857766 11.262321,-21.013817 24.157384,-21.369008 h 0.06822 L 2.4540093,27.594872 V 10.332356 l -13.0920553,0.09015 c -23.470344,-0.19643 -42.100153,16.91247 -42.780612,38.662499 0,21.150451 18.66811,38.394927 41.332528,38.394927 21.3792583,0 39.169992,-15.548697 41.112958,-35.003827 0.280047,-6.622173 0.145392,-15.361348 0.145392,-15.361348 0.03905,-3.598462 -0.06029,-2.30701 -0.02067,-9.452272 l 16.237464,-0.109878 c 12.565012,0.08279 12.422961,-17.53869 -0.145393,-17.296309 L 29.148587,10.3689 c 0,-8.8695516 0.149815,-17.6853302 0,-26.568322 0.01091,-7.682811 7.825994,-14.471322 16.498586,-14.471322 8.67478,0 17.851716,4.030482 17.851716,14.471322 0,1.491697 -0.03273,2.35966 -0.121677,2.9123 -0.96823,4.8420728 2.586633,9.4718773 7.821985,10.1704825 5.23537,0.6905498 10.042128,-2.8306548 10.560892,-7.7285495 0.299916,-1.936214 0.287857,-3.643646 0.287857,-5.35141 0,-18.411034 -17.675981,-31.756375 -36.397798,-31.756375 z"
         id="path2"
         style="stroke-width:5.59436" /></g></g></svg>
