<?xml version="1.0" encoding="UTF-8" standalone="no"?>
<!-- Created with Inkscape (http://www.inkscape.org/) -->

<svg
   width="512"
   height="512"
   viewBox="0 0 512 512"
   version="1.1"
   id="svg1"
   inkscape:version="1.4 (e7c3feb100, 2024-10-09)"
   sodipodi:docname="opensuse.svg"
   xmlns:inkscape="http://www.inkscape.org/namespaces/inkscape"
   xmlns:sodipodi="http://sodipodi.sourceforge.net/DTD/sodipodi-0.dtd"
   xmlns="http://www.w3.org/2000/svg"
   xmlns:svg="http://www.w3.org/2000/svg">
  <sodipodi:namedview
     id="namedview1"
     pagecolor="#505050"
     bordercolor="#ffffff"
     borderopacity="1"
     inkscape:showpageshadow="0"
     inkscape:pageopacity="0"
     inkscape:pagecheckerboard="1"
     inkscape:deskcolor="#505050"
     inkscape:document-units="px"
     inkscape:zoom="2.25"
     inkscape:cx="255.77778"
     inkscape:cy="256"
     inkscape:window-width="2560"
     inkscape:window-height="1368"
     inkscape:window-x="0"
     inkscape:window-y="0"
     inkscape:window-maximized="1"
     inkscape:current-layer="layer1" />
  <defs
     id="defs1" />
  <g
     inkscape:label="Layer 1"
     inkscape:groupmode="layer"
     id="layer1">
    <path
       d="M 135.61983,3.9530371e-4 C 60.773374,-0.17907255 -0.17957328,60.773374 3.9751633e-4,135.61981 0.18009398,210.46625 61.273277,271.55115 136.11973,271.73112 l 33.65029,0.0805 -0.0713,-0.009 c 0.0229,5e-5 0.032,-4e-5 0.0535,0 h 0.009 c 30.58169,0.0695 57.26963,0.13123 70.27526,0.16095 0.0366,17.84596 0.16324,75.21436 0.23228,103.91714 0.17924,74.84645 61.26488,135.93937 136.11129,136.11934 74.84645,0.17969 135.79941,-60.77298 135.61944,-135.61939 C 511.82025,301.5342 450.7266,240.4493 375.88014,240.26933 c -8.77279,-0.0229 -18.0631,-0.0412 -31.75702,-0.0713 -31.10715,-0.0709 -58.96531,-0.13169 -72.15092,-0.16095 -0.0366,-17.84597 -0.16324,-75.2144 -0.23228,-103.91718 C 271.56033,61.273263 210.46711,0.18034323 135.6207,3.7701399e-4 Z M 135.53935,32.016589 c 4.41121,0.01052 8.74642,0.326928 13.01163,0.866242 V 148.16593 H 32.827968 c -0.50818,-4.14165 -0.802416,-8.34969 -0.812704,-12.62771 C 31.877177,77.988651 77.990946,31.877015 135.53652,32.016991 Z m 45.02782,10.278939 c 34.94968,16.809348 59.05731,52.486479 59.15726,93.894972 0.0686,28.65402 0.19204,85.80046 0.23228,103.76517 -17.96356,-0.0411 -75.10242,-0.16324 -103.75321,-0.23228 -41.556476,-0.0997 -77.337972,-24.38595 -94.074937,-59.54121 H 180.57147 V 42.295285 Z m 91.47542,229.746342 c 17.96914,0.0411 75.11037,0.16323 103.76519,0.23228 42.10837,0.10105 78.26979,25.04109 94.70686,60.95294 H 332.6436 v 137.03117 c -35.59993,-16.56541 -60.26905,-52.57447 -60.36905,-94.45888 -0.0686,-28.654 -0.19204,-85.79244 -0.23228,-103.75317 z M 364.6538,365.225 h 114.69523 c 0.40237,3.69072 0.62496,7.43742 0.63406,11.23473 0.13809,57.54959 -45.97565,103.66122 -103.52122,103.52126 -3.99484,-0.009 -7.92978,-0.26978 -11.80629,-0.71445 V 365.22321 Z"
       color="#000000"
       fill="#35b9ab"
       fill-rule="evenodd"
       stroke-linecap="square"
       style="stroke-width:3.99927;-inkscape-stroke:none;fill:#ffffff;fill-opacity:1"
       id="path1" />
  </g>
</svg>
